<svg width="199" height="75" viewBox="0 0 199 75" fill="none" xmlns="http://www.w3.org/2000/svg">
<path d="M23.5605 6.51953C23.5605 5.02214 23.3652 3.94792 22.9746 3.29688C22.584 2.64583 21.9818 2.1901 21.168 1.92969L19.0684 1.73438C18.9056 1.66927 18.8242 1.49023 18.8242 1.19727C18.8242 0.936849 18.8568 0.757812 18.9219 0.660156C19.0195 0.5625 19.2311 0.513672 19.5566 0.513672H28.1992C28.3294 0.513672 28.4271 0.578776 28.4922 0.708984C28.5898 0.806641 28.6387 0.936849 28.6387 1.09961C28.6387 1.26237 28.5898 1.39258 28.4922 1.49023C28.4271 1.55534 28.1504 1.68555 27.6621 1.88086C26.653 2.27148 25.9531 2.79232 25.5625 3.44336C25.1719 4.06185 24.9277 5.23372 24.8301 6.95898V74H17.2617L5.10352 7.10547V67.7012C5.10352 69.3613 5.28255 70.5332 5.64062 71.2168C5.9987 71.8678 6.58464 72.3236 7.39844 72.584L9.5957 72.7793C9.75846 72.877 9.83984 73.0723 9.83984 73.3652C9.83984 73.6257 9.79102 73.8047 9.69336 73.9023C9.62826 73.9674 9.43294 74 9.10742 74H0.464844C0.334635 74 0.220703 73.9512 0.123047 73.8535C0.0579427 73.7559 0.0253906 73.6257 0.0253906 73.4629C0.0253906 73.3001 0.0579427 73.1862 0.123047 73.1211C0.220703 73.0234 0.513672 72.877 1.00195 72.6816C2.01107 72.291 2.69466 71.7865 3.05273 71.168C3.44336 70.5495 3.6875 69.3451 3.78516 67.5547V1.7832H1.05078C0.888021 1.7832 0.741536 1.73438 0.611328 1.63672C0.513672 1.50651 0.464844 1.34375 0.464844 1.14844C0.464844 0.985677 0.513672 0.855469 0.611328 0.757812C0.741536 0.627604 0.888021 0.5625 1.05078 0.5625H13.6973L23.5605 54.2246V6.51953ZM33.8633 1.7832H30.9336C30.7708 1.7832 30.6406 1.73438 30.543 1.63672C30.4453 1.50651 30.3965 1.36003 30.3965 1.19727C30.3965 1.00195 30.4453 0.855469 30.543 0.757812C30.6406 0.627604 30.7708 0.5625 30.9336 0.5625H46.8027C46.9655 0.5625 47.0957 0.627604 47.1934 0.757812C47.3236 0.855469 47.3887 0.985677 47.3887 1.14844C47.3887 1.34375 47.3236 1.50651 47.1934 1.63672C47.0957 1.73438 46.9655 1.7832 46.8027 1.7832H43.873V72.7305H46.8027C47.1283 72.9583 47.291 73.1699 47.291 73.3652C47.291 73.5931 47.1283 73.8047 46.8027 74H30.543C30.1849 73.7721 30.0059 73.5605 30.0059 73.3652C30.0059 73.1699 30.1849 72.9583 30.543 72.7305H33.8633V1.7832ZM53.1992 1.7832H50.3184C49.9603 1.58789 49.7812 1.3763 49.7812 1.14844C49.7812 0.953125 49.9603 0.757812 50.3184 0.5625H65.6992C69.5078 0.5625 72.8118 2.1901 75.6113 5.44531C78.4108 8.66797 79.8105 13.0788 79.8105 18.6777C79.8105 21.9004 79.2734 24.765 78.1992 27.2715C77.125 29.778 75.5299 31.8451 73.4141 33.4727C72.1445 34.4492 70.1751 35.3932 67.5059 36.3047C70.5007 37.1836 72.584 38.0299 73.7559 38.8438C75.7415 40.2109 77.2064 41.8548 78.1504 43.7754C79.127 45.696 79.6152 48.1862 79.6152 51.2461V69.1172C79.6152 69.931 79.7454 70.5007 80.0059 70.8262C80.2663 71.1517 80.6081 71.3145 81.0312 71.3145C81.6823 71.3145 82.2682 70.9076 82.7891 70.0938C83.6354 68.7917 84.1725 66.4479 84.4004 63.0625C84.4329 62.4766 84.5143 62.0859 84.6445 61.8906C84.8073 61.6953 84.9701 61.5977 85.1328 61.5977C85.3281 61.5977 85.4909 61.7116 85.6211 61.9395C85.7839 62.1999 85.8652 62.6882 85.8652 63.4043C85.8652 67.0176 84.9863 69.8171 83.2285 71.8027C81.5033 73.7559 79.3223 74.7324 76.6855 74.7324C74.3418 74.7324 72.5677 74.1302 71.3633 72.9258C70.1589 71.7214 69.5566 70.0124 69.5566 67.7988V41.9688C69.5566 39.7552 69.0033 38.2741 67.8965 37.5254C67.2454 37.1022 65.7155 36.8906 63.3066 36.8906V72.7305H65.6992C65.9596 72.7305 66.1549 72.7956 66.2852 72.9258C66.4479 73.056 66.5293 73.2025 66.5293 73.3652C66.5293 73.528 66.4479 73.6745 66.2852 73.8047C66.1549 73.9349 65.9596 74 65.6992 74H50.3184C50.123 74 49.9603 73.9512 49.8301 73.8535C49.6999 73.7233 49.6348 73.5605 49.6348 73.3652C49.6348 73.1699 49.6999 73.0234 49.8301 72.9258C49.9603 72.7956 50.123 72.7305 50.3184 72.7305H53.1992V1.7832ZM63.3066 1.7832V35.5723H65.6992C66.8385 35.5723 67.7663 35.1816 68.4824 34.4004C69.1986 33.6191 69.5566 32.4798 69.5566 30.9824V5.64062C69.5566 4.17578 69.2962 3.16667 68.7754 2.61328C68.2546 2.0599 67.2292 1.7832 65.6992 1.7832H63.3066ZM85.4746 1.83203H82.9844C82.8216 1.83203 82.6751 1.7832 82.5449 1.68555C82.4473 1.55534 82.3984 1.39258 82.3984 1.19727C82.3984 1.00195 82.4473 0.855469 82.5449 0.757812C82.6751 0.627604 82.8216 0.5625 82.9844 0.5625H98.5605C98.7233 0.5625 98.8535 0.627604 98.9512 0.757812C99.0814 0.855469 99.1465 1.00195 99.1465 1.19727C99.1465 1.39258 99.0977 1.55534 99 1.68555C98.9023 1.7832 98.7559 1.83203 98.5605 1.83203H95.582L99.8301 55.8848L105.592 6.76367C105.657 6.30794 105.689 5.85221 105.689 5.39648C105.689 4.32227 105.543 3.50846 105.25 2.95508C104.957 2.40169 104.534 2.0599 103.98 1.92969L102.418 1.7832C102.223 1.65299 102.125 1.45768 102.125 1.19727C102.125 1.00195 102.304 0.790365 102.662 0.5625H110.035C110.198 0.5625 110.328 0.611328 110.426 0.708984C110.523 0.806641 110.572 0.936849 110.572 1.09961C110.572 1.26237 110.523 1.39258 110.426 1.49023C110.361 1.58789 110.23 1.65299 110.035 1.68555C109.254 1.7832 108.652 2.125 108.229 2.71094C107.545 3.72005 107.073 5.39648 106.812 7.74023L99.4395 69.5078C99.1465 72.0469 98.9349 73.4303 98.8047 73.6582C98.6745 73.8861 98.4303 74 98.0723 74H93.3848C93.1243 74 92.929 73.8698 92.7988 73.6094C92.6686 73.349 92.4245 71.4772 92.0664 67.9941L85.4746 1.83203ZM119.557 1.58789H124.977L133.668 72.7305H135.865C136.223 72.9583 136.402 73.1699 136.402 73.3652C136.402 73.5605 136.223 73.7721 135.865 74H121.168C121.005 74 120.875 73.9512 120.777 73.8535C120.68 73.7233 120.631 73.5605 120.631 73.3652C120.631 73.1699 120.68 73.0234 120.777 72.9258C120.875 72.7956 121.005 72.7305 121.168 72.7305H123.512L122.242 58.8633H113.404L112.33 66.7246C112.298 67.1478 112.281 67.5872 112.281 68.043C112.281 69.4753 112.542 70.5658 113.062 71.3145C113.616 72.0306 114.365 72.4701 115.309 72.6328L116.09 72.877C116.22 73.0072 116.285 73.1699 116.285 73.3652C116.285 73.5605 116.22 73.7233 116.09 73.8535C115.992 73.9512 115.862 74 115.699 74H107.35C107.187 74 107.04 73.9512 106.91 73.8535C106.812 73.7233 106.764 73.5605 106.764 73.3652C106.764 73.1699 106.812 73.0072 106.91 72.877L107.496 72.6816C108.44 72.5514 109.173 72.1283 109.693 71.4121C110.475 70.2728 111.028 68.3848 111.354 65.748L119.557 1.58789ZM118.336 19.8008L113.551 57.5938H122.096L118.336 19.8008ZM161.939 6.51953C161.939 5.02214 161.744 3.94792 161.354 3.29688C160.963 2.64583 160.361 2.1901 159.547 1.92969L157.447 1.73438C157.285 1.66927 157.203 1.49023 157.203 1.19727C157.203 0.936849 157.236 0.757812 157.301 0.660156C157.398 0.5625 157.61 0.513672 157.936 0.513672H166.578C166.708 0.513672 166.806 0.578776 166.871 0.708984C166.969 0.806641 167.018 0.936849 167.018 1.09961C167.018 1.26237 166.969 1.39258 166.871 1.49023C166.806 1.55534 166.529 1.68555 166.041 1.88086C165.032 2.27148 164.332 2.79232 163.941 3.44336C163.551 4.06185 163.307 5.23372 163.209 6.95898V74H155.641L143.482 7.10547V67.7012C143.482 69.3613 143.661 70.5332 144.02 71.2168C144.378 71.8678 144.964 72.3236 145.777 72.584L147.975 72.7793C148.137 72.877 148.219 73.0723 148.219 73.3652C148.219 73.6257 148.17 73.8047 148.072 73.9023C148.007 73.9674 147.812 74 147.486 74H138.844C138.714 74 138.6 73.9512 138.502 73.8535C138.437 73.7559 138.404 73.6257 138.404 73.4629C138.404 73.3001 138.437 73.1862 138.502 73.1211C138.6 73.0234 138.893 72.877 139.381 72.6816C140.39 72.291 141.074 71.7865 141.432 71.168C141.822 70.5495 142.066 69.3451 142.164 67.5547V1.7832H139.43C139.267 1.7832 139.12 1.73438 138.99 1.63672C138.893 1.50651 138.844 1.34375 138.844 1.14844C138.844 0.985677 138.893 0.855469 138.99 0.757812C139.12 0.627604 139.267 0.5625 139.43 0.5625H152.076L161.939 54.2246V6.51953ZM181.178 1.58789H186.598L195.289 72.7305H197.486C197.844 72.9583 198.023 73.1699 198.023 73.3652C198.023 73.5605 197.844 73.7721 197.486 74H182.789C182.626 74 182.496 73.9512 182.398 73.8535C182.301 73.7233 182.252 73.5605 182.252 73.3652C182.252 73.1699 182.301 73.0234 182.398 72.9258C182.496 72.7956 182.626 72.7305 182.789 72.7305H185.133L183.863 58.8633H175.025L173.951 66.7246C173.919 67.1478 173.902 67.5872 173.902 68.043C173.902 69.4753 174.163 70.5658 174.684 71.3145C175.237 72.0306 175.986 72.4701 176.93 72.6328L177.711 72.877C177.841 73.0072 177.906 73.1699 177.906 73.3652C177.906 73.5605 177.841 73.7233 177.711 73.8535C177.613 73.9512 177.483 74 177.32 74H168.971C168.808 74 168.661 73.9512 168.531 73.8535C168.434 73.7233 168.385 73.5605 168.385 73.3652C168.385 73.1699 168.434 73.0072 168.531 72.877L169.117 72.6816C170.061 72.5514 170.794 72.1283 171.314 71.4121C172.096 70.2728 172.649 68.3848 172.975 65.748L181.178 1.58789ZM179.957 19.8008L175.172 57.5938H183.717L179.957 19.8008Z" fill="#F8B822"/>
</svg>
